# xmcd
#
# Track frame offsets:
#	150
#	10650
#	22497
#	33742
#	43237
#	54037
#	64687
#	76297
#	88447
#	100182
#	112577
#	125072
#	137617
#	154392
#	167460
#	178042
#	190805
#	207177
#	220020
#	232422
#	246367
#	258037
#	269532
#	281270
#	294322
#	304975
#	313620
#
# Disc length: 4326 seconds
#
# Revision: 0
# Processed by: cddbd v1.4PL0 Copyright (c) Steve Scherf et al.
# Submitted via: audiograbber 1.81.02
#
DISCID=8710e41b
DTITLE=Hank Snow - The Singing Ranger, Vol3 (02)
DYEAR=1900
DGENRE=
TTITLE0=Chasin' A Rainbow
TTITLE1=The Last Ride
TTITLE2=Doggone That Train
TTITLE3=Father Time And Mother Love
TTITLE4=I Heard My Heart Break Last Night
TTITLE5=Walkin' And Talkin'
TTITLE6=Rockin' Rollin' Ocean (with wave effect)
TTITLE7=Miller's Cave
TTITLE8=Dreamer Island
TTITLE9=The Change Of The Tide
TTITLE10=I'm Movin' On
TTITLE11=The Golden Rocket
TTITLE12=My Mother
TTITLE13=I Don't Hurt Anymore
TTITLE14=Conscience I'm Guilty
TTITLE15=I'm Asking For A Friend
TTITLE16=Bluebird Island
TTITLE17=(Now And Then There's) A Fool Such As I
TTITLE18=Marriage Vow
TTITLE19=With This Ring I Thee Wed
TTITLE20=Rockin' Rollin' Ocean (without wave effect)
TTITLE21=My Nova Scotia Home
TTITLE22=The Tramp's Story
TTITLE23=Life Time Blues
TTITLE24=Maple Leaves
TTITLE25=Casey's Washerwoman Boogie (instrumental)
TTITLE26=Hawaiian Sunset (instrumental)
EXTD=
EXTT0=
EXTT1=
EXTT2=
EXTT3=
EXTT4=
EXTT5=
EXTT6=
EXTT7=
EXTT8=
EXTT9=
EXTT10=
EXTT11=
EXTT12=
EXTT13=
EXTT14=
EXTT15=
EXTT16=
EXTT17=
EXTT18=
EXTT19=
EXTT20=
EXTT21=
EXTT22=
EXTT23=
EXTT24=
EXTT25=
EXTT26=
PLAYORDER=
